<?xml version="1.0" encoding="UTF-8"?>
<svg id="Layer_2" data-name="Layer 2" xmlns="http://www.w3.org/2000/svg" xmlns:xlink="http://www.w3.org/1999/xlink" viewBox="0 0 660.5 458.6">
  <defs>
    <style>
      .cls-1 {
        fill: url(#linear-gradient);
      }

      .cls-1, .cls-2, .cls-3, .cls-4, .cls-5 {
        stroke-width: 0px;
      }

      .cls-2 {
        fill: url(#linear-gradient-4);
      }

      .cls-3 {
        fill: url(#linear-gradient-2);
      }

      .cls-4 {
        fill: url(#linear-gradient-3);
      }

      .cls-5 {
        fill: url(#linear-gradient-5);
      }
    </style>
    <linearGradient id="linear-gradient" x1="-71.75" y1="83.08" x2="176.13" y2="330.96" gradientUnits="userSpaceOnUse">
      <stop offset="0" stop-color="#f5911e"/>
      <stop offset=".46" stop-color="#c87963"/>
      <stop offset=".82" stop-color="#a96993"/>
      <stop offset="1" stop-color="#9e63a6"/>
    </linearGradient>
    <linearGradient id="linear-gradient-2" x1="318.68" y1="154.87" x2="423.98" y2="260.18" xlink:href="#linear-gradient"/>
    <linearGradient id="linear-gradient-3" x1="406.33" y1="163.85" x2="598.51" y2="356.03" xlink:href="#linear-gradient"/>
    <linearGradient id="linear-gradient-4" x1="186.34" y1="81.2" x2="431.42" y2="326.27" xlink:href="#linear-gradient"/>
    <linearGradient id="linear-gradient-5" x1="356.52" y1="27.71" x2="409.92" y2="81.11" xlink:href="#linear-gradient"/>
  </defs>
  <g id="Layer_1-2" data-name="Layer 1">
    <g>
      <path class="cls-1" d="M185.43,149.08c-9.13-11.5-20.19-20.66-33.19-27.47-13-6.8-27.85-10.21-44.56-10.21-8.05,0-15.55,1.01-22.51,3.02-6.96,2.02-13.23,4.64-18.8,7.89-5.57,3.25-10.37,6.89-14.39,10.91s-7.43,7.89-10.21,11.6h-.93V22.24c0-6.94-1.86-12.38-5.57-16.33C31.56,1.97,26.61,0,20.42,0S9.28,1.92,5.57,5.76C1.86,9.6,0,14.9,0,21.65v315.04c0,6.76,1.86,12.05,5.57,15.89,3.71,3.84,8.66,5.76,14.85,5.76s11.14-1.93,14.85-5.8c3.71-3.87,5.57-9.2,5.57-16.01v-12.07h.93c11.76,22.59,33.72,33.88,65.91,33.88,16.71,0,31.56-3.4,44.56-10.21,13-6.8,24.06-15.96,33.19-27.46,9.12-11.5,16.01-24.67,20.66-39.5,4.64-14.82,6.96-30.26,6.96-46.3s-2.32-31.47-6.96-46.3c-4.64-14.82-11.53-27.99-20.66-39.49ZM168.72,265.69c-2.32,10.35-6.19,19.8-11.6,28.35-5.42,8.55-12.38,15.53-20.89,20.92-8.51,5.4-19.11,8.09-31.8,8.09s-22.9-2.7-31.56-8.09c-8.67-5.4-15.71-12.37-21.12-20.92-5.42-8.55-9.28-18-11.6-28.35-2.32-10.35-3.48-20.63-3.48-30.82s1.16-20.47,3.48-30.82c2.32-10.35,6.19-19.8,11.6-28.35,5.41-8.55,12.45-15.53,21.12-20.92,8.66-5.4,19.18-8.1,31.56-8.1s23.28,2.71,31.8,8.1c8.51,5.4,15.47,12.37,20.89,20.92,5.41,8.55,9.28,18,11.6,28.35,2.32,10.35,3.48,20.62,3.48,30.82s-1.16,20.47-3.48,30.82Z"/>
      <path class="cls-3" d="M371.33,111.4c-6.19,0-11.14,1.89-14.85,5.68-3.71,3.79-5.57,9-5.57,15.66v149.57c0,6.66,1.86,11.88,5.57,15.67,3.71,3.79,8.66,5.67,14.85,5.67s11.14-1.89,14.85-5.67c3.71-3.79,5.57-9.01,5.57-15.67v-149.57c0-6.66-1.86-11.87-5.57-15.66-3.71-3.79-8.67-5.68-14.85-5.68Z"/>
      <path class="cls-4" d="M653.54,188.57c-4.64-14.82-11.53-27.99-20.66-39.49-9.13-11.5-20.19-20.66-33.19-27.47-13-6.8-27.85-10.21-44.56-10.21-32.19,0-54.16,11.3-65.91,33.88h-.93v-12.07c0-6.8-1.86-12.14-5.57-16.01-3.71-3.87-8.67-5.8-14.85-5.8s-11.14,1.92-14.85,5.76c-3.71,3.84-5.57,9.13-5.57,15.88v303.91c0,6.75,1.86,12.05,5.57,15.89,3.71,3.83,8.66,5.75,14.85,5.75s11.14-1.98,14.85-5.93c3.71-3.95,5.57-9.41,5.57-16.35v-111.4h.93c2.79,3.71,6.19,7.59,10.21,11.6,4.02,4.02,8.82,7.66,14.39,10.91,5.57,3.25,11.84,5.88,18.8,7.89,6.96,2.02,14.46,3.02,22.51,3.02,16.71,0,31.56-3.4,44.56-10.21,13-6.8,24.06-15.96,33.19-27.46,9.12-11.5,16.01-24.67,20.66-39.5,4.64-14.82,6.96-30.26,6.96-46.3s-2.32-31.47-6.96-46.3ZM616.17,265.69c-2.32,10.35-6.19,19.8-11.6,28.35-5.42,8.55-12.38,15.53-20.89,20.92-8.51,5.4-19.11,8.09-31.8,8.09s-22.9-2.7-31.56-8.09c-8.67-5.4-15.71-12.37-21.12-20.92-5.42-8.55-9.28-18-11.6-28.35-2.32-10.35-3.48-20.63-3.48-30.82s1.16-20.47,3.48-30.82c2.32-10.35,6.19-19.8,11.6-28.35,5.41-8.55,12.45-15.53,21.12-20.92,8.66-5.4,19.18-8.1,31.56-8.1s23.28,2.71,31.8,8.1c8.51,5.4,15.47,12.37,20.89,20.92,5.41,8.55,9.28,18,11.6,28.35,2.32,10.35,3.48,20.62,3.48,30.82s-1.16,20.47-3.48,30.82Z"/>
      <path class="cls-2" d="M367.3,337.66c-24.89,4.64-42.72,2.66-53-5.89-11.42-9.49-17.22-29.72-17.22-60.11,0-.07-.01-.15-.01-.22V21.65c0-6.75-1.86-12.05-5.57-15.89-3.71-3.84-8.67-5.76-14.85-5.76s-11.14,1.92-14.85,5.76c-3.71,3.84-5.57,9.14-5.57,15.89v249.79c0,.07-.01.15-.01.22,0,.25.01.49.01.73v.49c0,.13.01.24.01.37.26,42.85,10.7,72.3,31.94,89.95,14.31,11.89,32.56,17.79,55.31,17.79,9.62,0,20.03-1.05,31.3-3.15,11.09-2.07,18.41-12.74,16.34-23.83-2.07-11.09-12.74-18.41-23.83-16.34Z"/>
      <path class="cls-5" d="M407.73,24c-2.73-5.66-9.54-8.03-15.2-5.3-11.87,5.73-24.17,11.88-36.07,17.83-5.33,2.66-10.57,5.28-15.64,7.8-4.45,2.21-7.21,6.84-7.02,11.79.18,4.87,3.21,9.2,7.71,11.04,15.26,6.23,22.02,8.95,28.48,11.55,5.88,2.36,11.51,4.63,23.1,9.36,1.41.58,2.87.85,4.3.85,4.49,0,8.74-2.67,10.54-7.08,2.38-5.82-.41-12.46-6.23-14.84-11.65-4.76-17.31-7.03-23.21-9.41-2.29-.92-4.61-1.85-7.34-2.96,10.41-5.2,21.04-10.49,31.29-15.44,5.66-2.73,8.03-9.54,5.3-15.2Z"/>
    </g>
  </g>
</svg>