<?xml version="1.0" encoding="UTF-8"?>
<svg id="Layer_2" data-name="Layer 2" xmlns="http://www.w3.org/2000/svg" xmlns:xlink="http://www.w3.org/1999/xlink" viewBox="0 0 863.5 863.5">
  <defs>
    <style>
      .cls-1 {
        fill: url(#linear-gradient);
      }

      .cls-1, .cls-2 {
        stroke-width: 0px;
      }

      .cls-2 {
        fill: #fff;
      }
    </style>
    <linearGradient id="linear-gradient" x1="49.15" y1="49.15" x2="814.35" y2="814.35" gradientUnits="userSpaceOnUse">
      <stop offset="0" stop-color="#f5911e"/>
      <stop offset=".46" stop-color="#c87963"/>
      <stop offset=".82" stop-color="#a96993"/>
      <stop offset="1" stop-color="#9e63a6"/>
    </linearGradient>
  </defs>
  <g id="Layer_1-2" data-name="Layer 1">
    <rect class="cls-1" y="0" width="863.5" height="863.5" rx="167.79" ry="167.79"/>
    <g>
      <path class="cls-2" d="M286.93,351.53c-9.13-11.5-20.19-20.66-33.19-27.47-13-6.8-27.85-10.21-44.56-10.21-8.05,0-15.55,1.01-22.51,3.02-6.96,2.02-13.23,4.64-18.8,7.89-5.57,3.25-10.37,6.89-14.39,10.91-4.03,4.03-7.43,7.89-10.21,11.6h-.93v-122.58c0-6.94-1.86-12.38-5.57-16.33-3.71-3.95-8.67-5.92-14.85-5.92s-11.14,1.92-14.85,5.76c-3.71,3.84-5.57,9.14-5.57,15.89v315.04c0,6.76,1.86,12.05,5.57,15.89,3.71,3.84,8.66,5.76,14.85,5.76s11.14-1.93,14.85-5.8c3.71-3.87,5.57-9.2,5.57-16.01v-12.07h.93c11.76,22.59,33.72,33.88,65.91,33.88,16.71,0,31.56-3.4,44.56-10.21,13-6.8,24.06-15.96,33.19-27.46,9.12-11.5,16.01-24.67,20.66-39.5,4.64-14.82,6.96-30.26,6.96-46.3s-2.32-31.47-6.96-46.3c-4.64-14.82-11.53-27.99-20.66-39.49ZM270.22,468.14c-2.32,10.35-6.19,19.8-11.6,28.35-5.42,8.55-12.38,15.53-20.89,20.92-8.51,5.4-19.11,8.09-31.8,8.09s-22.9-2.7-31.56-8.09c-8.67-5.4-15.71-12.37-21.12-20.92-5.42-8.55-9.28-18-11.6-28.35-2.32-10.35-3.48-20.63-3.48-30.82s1.16-20.47,3.48-30.82c2.32-10.35,6.19-19.8,11.6-28.35,5.41-8.55,12.45-15.53,21.12-20.92,8.66-5.4,19.18-8.1,31.56-8.1s23.28,2.7,31.8,8.1c8.51,5.4,15.47,12.37,20.89,20.92,5.41,8.55,9.28,18,11.6,28.35,2.32,10.35,3.48,20.62,3.48,30.82s-1.16,20.47-3.48,30.82Z"/>
      <path class="cls-2" d="M472.83,313.85c-6.19,0-11.14,1.89-14.85,5.68-3.71,3.79-5.57,9-5.57,15.66v149.57c0,6.66,1.86,11.88,5.57,15.67,3.71,3.79,8.66,5.67,14.85,5.67s11.14-1.89,14.85-5.67c3.71-3.79,5.57-9.01,5.57-15.67v-149.57c0-6.66-1.86-11.87-5.57-15.66-3.71-3.79-8.67-5.68-14.85-5.68Z"/>
      <path class="cls-2" d="M755.04,391.02c-4.64-14.82-11.53-27.99-20.66-39.49-9.13-11.5-20.19-20.66-33.19-27.47-13-6.8-27.85-10.21-44.56-10.21-32.19,0-54.16,11.3-65.91,33.88h-.93v-12.07c0-6.8-1.86-12.14-5.57-16.01-3.71-3.87-8.67-5.8-14.85-5.8s-11.14,1.92-14.85,5.76c-3.71,3.84-5.57,9.13-5.57,15.88v303.91c0,6.75,1.86,12.05,5.57,15.89,3.71,3.83,8.66,5.75,14.85,5.75s11.14-1.98,14.85-5.93c3.71-3.95,5.57-9.41,5.57-16.35v-111.4h.93c2.79,3.71,6.19,7.59,10.21,11.6,4.02,4.03,8.82,7.66,14.39,10.91,5.57,3.25,11.84,5.88,18.8,7.89,6.96,2.02,14.46,3.02,22.51,3.02,16.71,0,31.56-3.4,44.56-10.21,13-6.8,24.06-15.96,33.19-27.46,9.12-11.5,16.01-24.67,20.66-39.5,4.64-14.82,6.96-30.26,6.96-46.3s-2.32-31.47-6.96-46.3ZM717.67,468.14c-2.32,10.35-6.19,19.8-11.6,28.35-5.42,8.55-12.38,15.53-20.89,20.92-8.51,5.4-19.11,8.09-31.8,8.09s-22.9-2.7-31.56-8.09c-8.67-5.4-15.71-12.37-21.12-20.92-5.42-8.55-9.28-18-11.6-28.35-2.32-10.35-3.48-20.63-3.48-30.82s1.16-20.47,3.48-30.82c2.32-10.35,6.19-19.8,11.6-28.35,5.41-8.55,12.45-15.53,21.12-20.92,8.66-5.4,19.18-8.1,31.56-8.1s23.28,2.7,31.8,8.1c8.51,5.4,15.47,12.37,20.89,20.92,5.41,8.55,9.28,18,11.6,28.35,2.32,10.35,3.48,20.62,3.48,30.82s-1.16,20.47-3.48,30.82Z"/>
      <path class="cls-2" d="M468.8,540.11c-24.89,4.64-42.72,2.65-53-5.89-11.42-9.49-17.22-29.72-17.22-60.11,0-.07-.01-.15-.01-.22v-249.79c0-6.75-1.86-12.05-5.57-15.89-3.71-3.84-8.67-5.76-14.85-5.76s-11.14,1.92-14.85,5.76c-3.71,3.84-5.57,9.14-5.57,15.89v249.79c0,.07-.01.15-.01.22,0,.25.01.49.01.74v.49c0,.13.01.24.01.37.26,42.85,10.7,72.3,31.94,89.95,14.31,11.89,32.56,17.79,55.31,17.79,9.61,0,20.03-1.05,31.3-3.15,11.09-2.07,18.41-12.74,16.34-23.83-2.07-11.09-12.74-18.41-23.83-16.34Z"/>
      <path class="cls-2" d="M498.89,291.37c-1.43,0-2.89-.27-4.3-.85-11.59-4.74-17.22-7-23.1-9.36-6.47-2.6-13.23-5.32-28.48-11.55-4.5-1.84-7.53-6.17-7.71-11.04-.18-4.95,2.57-9.58,7.02-11.79,5.07-2.52,10.31-5.14,15.64-7.8,11.89-5.95,24.2-12.1,36.07-17.83,5.66-2.73,12.46-.36,15.2,5.3s.36,12.46-5.3,15.2c-10.25,4.95-20.88,10.24-31.29,15.44,2.73,1.1,5.05,2.04,7.34,2.96,5.91,2.37,11.56,4.65,23.21,9.41,5.82,2.38,8.61,9.02,6.23,14.84-1.8,4.41-6.05,7.08-10.54,7.08Z"/>
    </g>
  </g>
</svg>