<?xml version="1.0" encoding="UTF-8"?>
<svg id="Layer_2" data-name="Layer 2" xmlns="http://www.w3.org/2000/svg" xmlns:xlink="http://www.w3.org/1999/xlink" viewBox="0 0 633.68 706.6">
  <defs>
    <style>
      .cls-1 {
        fill: url(#linear-gradient);
      }

      .cls-1, .cls-2, .cls-3, .cls-4, .cls-5, .cls-6, .cls-7 {
        stroke-width: 0px;
      }

      .cls-2 {
        fill: url(#linear-gradient-4);
      }

      .cls-3 {
        fill: url(#linear-gradient-2);
      }

      .cls-4 {
        fill: url(#linear-gradient-3);
      }

      .cls-5 {
        fill: url(#linear-gradient-7);
      }

      .cls-6 {
        fill: url(#linear-gradient-5);
      }

      .cls-7 {
        fill: url(#linear-gradient-6);
      }
    </style>
    <linearGradient id="linear-gradient" x1="200.86" y1="391.02" x2="320.65" y2="391.02" gradientUnits="userSpaceOnUse">
      <stop offset="0" stop-color="#f5911e"/>
      <stop offset=".46" stop-color="#c87963"/>
      <stop offset=".82" stop-color="#a96993"/>
      <stop offset="1" stop-color="#9e63a6"/>
    </linearGradient>
    <linearGradient id="linear-gradient-2" x1="150.9" y1="545.23" x2="368.73" y2="545.23" xlink:href="#linear-gradient"/>
    <linearGradient id="linear-gradient-3" x1="78.48" y1="212.8" x2="210.94" y2="212.8" xlink:href="#linear-gradient"/>
    <linearGradient id="linear-gradient-4" x1="312.61" y1="216.69" x2="448.02" y2="216.69" xlink:href="#linear-gradient"/>
    <linearGradient id="linear-gradient-5" x1="316.23" y1="341.03" x2="467.84" y2="341.03" xlink:href="#linear-gradient"/>
    <linearGradient id="linear-gradient-6" x1="0" y1="205.11" x2="525.73" y2="205.11" xlink:href="#linear-gradient"/>
    <linearGradient id="linear-gradient-7" x1="39.04" y1="498.71" x2="633.68" y2="498.71" xlink:href="#linear-gradient"/>
  </defs>
  <g id="Layer_1-2" data-name="Layer 1">
    <g>
      <path class="cls-1" d="M254.29,317.97c2.71-10.5-3.61-21.2-14.11-23.9-10.5-2.71-21.19,3.61-23.9,14.11-9.28,36.02-14.44,70.83-15.33,103.46-.25,9.13-.71,26.12,9.76,43.18,10.69,17.42,32.37,33.78,57.59,33.78,4.02,0,8.14-.42,12.31-1.31,17.39-3.73,28.99-14.31,35.66-22.52,6.83-8.42,5.54-20.77-2.88-27.6-8.42-6.83-20.77-5.54-27.6,2.88-2.2,2.71-6.87,7.47-13.4,8.87-11.73,2.51-23.57-7.04-28.22-14.63-4.04-6.58-4.19-13.67-3.98-21.58.81-29.69,5.56-61.57,14.1-94.74Z"/>
      <path class="cls-3" d="M154.27,522.85c-6.07,8.98-3.71,21.18,5.27,27.25,18.46,12.48,48.79,27.78,88.48,29.83,3.01.16,5.97.23,8.9.23,49.27,0,85.86-21.25,103.81-34.43,8.74-6.42,10.62-18.7,4.2-27.43-6.42-8.73-18.7-10.62-27.43-4.2-14.8,10.87-45.84,28.79-87.45,26.64-30.67-1.58-54.19-13.46-68.52-23.15-8.98-6.07-21.18-3.71-27.25,5.26Z"/>
      <path class="cls-4" d="M203.03,204.9c-9.89-7.35-30.61-19.58-58.99-19.58-.33,0-.66,0-1,0-26.95.27-46.85,11.62-56.32,18.35-8.83,6.29-10.89,18.54-4.61,27.37s18.54,10.89,27.37,4.61c5.72-4.07,17.73-10.92,33.95-11.08.2,0,.4,0,.6,0,17.09,0,29.6,7.39,35.58,11.83,3.52,2.61,7.62,3.88,11.69,3.88,5.99,0,11.91-2.74,15.76-7.92,6.47-8.7,4.66-20.99-4.04-27.46Z"/>
      <path class="cls-2" d="M342.12,239.57c8.58-5,22.56-10.81,40.35-10.1,15.85.64,28.15,6.26,35.68,10.87,3.2,1.96,6.73,2.89,10.22,2.89,6.61,0,13.06-3.34,16.76-9.39,5.66-9.25,2.75-21.32-6.5-26.98-11.5-7.04-30.31-15.63-54.59-16.6-27.26-1.1-48.6,7.78-61.69,15.41-9.36,5.46-12.53,17.47-7.07,26.84,5.46,9.36,17.48,12.53,26.84,7.07Z"/>
      <path class="cls-6" d="M448.21,398.64c8.1,0,15.68-5.05,18.52-13.13,3.59-10.23-1.79-21.43-12.02-25.02l-61.7-21.66,53.68-17.08c10.33-3.29,16.04-14.32,12.75-24.65-3.29-10.33-14.32-16.04-24.65-12.75l-103.36,32.89c-8.95,2.85-15.05,11.07-15.19,20.46-.14,9.39,5.72,17.79,14.58,20.9l110.89,38.93c2.15.76,4.34,1.11,6.5,1.11Z"/>
      <path class="cls-7" d="M150.28,391.04c17.85-13.42,28.09-32.54,28.09-52.46s-10.24-39.04-28.09-52.46c-16.44-12.36-38-19.17-60.71-19.17-17.89,0-35.05,4.24-49.58,12.08,3.41-75.38,21.55-159.54,77.22-211.66,7.59-7.1,15.69-13.76,24.22-19.91l-14.37,51.18,39.29-19.12c34.46-16.77,71.03-27.71,108.7-32.52,12.61-1.61,25.41-2.53,38.18-2.74l-39.45,41.77,51.55-4.61c29.31-2.62,58.81-1.07,87.68,4.61,29.28,5.76,57.54,15.7,83.99,29.53,9.6,5.02,21.46,1.31,26.48-8.29,5.02-9.6,1.31-21.46-8.3-26.48-29.79-15.58-61.62-26.77-94.59-33.26-20.06-3.95-40.38-6.13-60.76-6.52.37-5.15-.45-10.41-2.52-15.36-5.2-12.42-16.79-20.32-30.25-20.6-18.99-.4-38.17.62-56.98,3.02-29.19,3.73-57.77,10.76-85.38,20.98-1.07-8.74-5.64-16.84-13.05-22.39-11.07-8.29-25.8-8.89-37.53-1.55-15.68,9.81-30.4,21.12-43.74,33.61C48.64,77.81,20.92,134.73,8.02,207.88-2.04,264.87-.08,316.31.66,335.68c.05,1.32.1,2.5.13,3.54.22,19.69,10.42,38.54,28.08,51.82,16.44,12.36,38,19.17,60.71,19.17s44.26-6.81,60.71-19.17ZM40.02,338.58c0-17.55,22.69-32.38,49.55-32.38,1.57,0,3.13.06,4.67.15-11.04,6.71-18.41,18.85-18.41,32.72s6.75,24.94,16.99,31.81c-1.08.05-2.16.08-3.25.08-26.86,0-49.55-14.83-49.55-32.38Z"/>
      <path class="cls-5" d="M632.97,360.82c-2.9-20.28-14.98-39.46-33.13-52.61-20.28-14.69-45.19-20.35-70.16-15.94-10.01,1.77-16.89,10.82-16.16,20.74-.05,1.7.11,3.42.52,5.15,5.98,24.75,8.87,53.35,8.14,80.55-1.35,50.72-14.47,97.25-39,138.31-24.67,41.31-60.13,75.33-102.55,98.4-43.5,23.65-92.31,34.51-141.15,31.41-44.52-2.83-84.56-18.7-119.03-47.16-26.61-21.98-41.14-44.44-44.96-50.8-5.58-9.29-17.63-12.3-26.93-6.72-9.29,5.58-12.3,17.63-6.72,26.93,10.89,18.15,71.5,109.07,195.14,116.93,6.29.4,12.57.6,18.85.6,49.86,0,99.13-12.55,143.54-36.7,48.59-26.42,89.22-65.41,117.5-112.75,18.79-31.46,31.71-65.65,38.65-102.1,21.85-2.88,42-13.47,56.72-30.12,16.35-18.5,23.9-41.87,20.72-64.11ZM582.84,398.94c-6.02,6.81-13.64,11.81-22.08,14.73.3-4.6.52-9.24.65-13.9.71-26.8-1.63-50.17-4.72-68.6,7.2,1.47,14.04,4.44,20.12,8.84,9.59,6.95,15.9,16.56,17.3,26.38,1.53,10.67-2.69,22.84-11.27,32.55Z"/>
    </g>
  </g>
</svg>